<svg width="26" height="26" viewBox="0 0 26 26" fill="none" xmlns="http://www.w3.org/2000/svg">
<path d="M13.9169 16.696L8.38086 17.6925L9.30352 12.0827L19.8773 1.54585C20.0488 1.37289 20.2529 1.2356 20.4778 1.14192C20.7027 1.04823 20.9438 1 21.1875 1C21.4311 1 21.6723 1.04823 21.8971 1.14192C22.122 1.2356 22.3261 1.37289 22.4976 1.54585L24.4537 3.5019C24.6267 3.67344 24.7639 3.87754 24.8576 4.10241C24.9513 4.32728 24.9995 4.56848 24.9995 4.81208C24.9995 5.05569 24.9513 5.29688 24.8576 5.52175C24.7639 5.74662 24.6267 5.95072 24.4537 6.12227L13.9169 16.696Z" stroke="black" stroke-width="2" stroke-linecap="round" stroke-linejoin="round"/>
<path d="M22.2213 17.6187V23.1547C22.2213 23.6441 22.0269 24.1134 21.6808 24.4595C21.3348 24.8056 20.8654 25 20.376 25H2.84533C2.35592 25 1.88655 24.8056 1.54048 24.4595C1.19442 24.1134 1 23.6441 1 23.1547V5.62402C1 5.13461 1.19442 4.66524 1.54048 4.31917C1.88655 3.9731 2.35592 3.77869 2.84533 3.77869H8.38132" stroke="black" stroke-width="2" stroke-linecap="round" stroke-linejoin="round"/>
</svg>
