<svg width="22" height="22" viewBox="0 0 22 22" fill="none" xmlns="http://www.w3.org/2000/svg">
<path d="M7.92292 8.4999C9.83465 8.4999 11.3844 6.82099 11.3844 4.74995C11.3844 2.67891 9.83465 1 7.92292 1C6.01119 1 4.46143 2.67891 4.46143 4.74995C4.46143 6.82099 6.01119 8.4999 7.92292 8.4999Z" stroke="black" stroke-width="2" stroke-linecap="round" stroke-linejoin="round"/>
<path d="M14.846 20.9997H1V19.333C1 17.3439 1.72938 15.4363 3.02769 14.0298C4.32601 12.6233 6.08689 11.8331 7.92298 11.8331C9.75907 11.8331 11.52 12.6233 12.8183 14.0298C14.1166 15.4363 14.846 17.3439 14.846 19.333V20.9997Z" stroke="black" stroke-width="2" stroke-linecap="round" stroke-linejoin="round"/>
<path d="M14.0767 1C14.9947 1 15.8751 1.39508 16.5243 2.09833C17.1735 2.80159 17.5382 3.7554 17.5382 4.74995C17.5382 5.7445 17.1735 6.69831 16.5243 7.40156C15.8751 8.10481 14.9947 8.4999 14.0767 8.4999" stroke="black" stroke-width="2" stroke-linecap="round" stroke-linejoin="round"/>
<path d="M16.5386 12.1499C17.8491 12.69 18.9773 13.6484 19.774 14.8984C20.5706 16.1483 20.9982 17.6308 21.0001 19.1498V20.9998H18.6924" stroke="black" stroke-width="2" stroke-linecap="round" stroke-linejoin="round"/>
</svg>
